<?xml version="1.0" encoding="UTF-8"?>
<svg width="62px" height="61px" viewBox="0 0 62 61" version="1.1" xmlns="http://www.w3.org/2000/svg" xmlns:xlink="http://www.w3.org/1999/xlink">
    <!-- Generator: Sketch 48.2 (47327) - http://www.bohemiancoding.com/sketch -->
    <title>about_you</title>
    <desc>Created with Sketch.</desc>
    <defs></defs>
    <g id="Assets" stroke="none" stroke-width="1" fill="none" fill-rule="evenodd">
        <g id="about_you" transform="translate(1.000000, 1.000000)" stroke="#777777" stroke-width="2">
            <path d="M12,14 C12,6.268 18.268,0 26,0 C33.732,0 40,6.268 40,14 C40,21.732 33.732,30 26,30 C18.268,30 12,21.732 12,14 Z" id="Shape" stroke-linecap="square"></path>
            <path d="M37.195,38.869 C34.009,38.345 30.285,38 26,38 C14.86,38 7.506,40.331 3.547,42.087 C1.379,43.048 0,45.196 0,47.567 L0,58 L37,58" id="Shape"></path>
            <path d="M58.083,37.984 C55.164,34.962 50.292,35.456 48,39.03 C45.706,35.452 40.833,34.965 37.917,37.983 C35.361,40.628 35.361,44.918 37.917,47.563 L47.999,58 L58.083,47.564 C60.639,44.918 60.639,40.629 58.083,37.984 Z" id="Shape" stroke-linecap="square"></path>
        </g>
    </g>
</svg>