<?xml version="1.0" encoding="UTF-8"?>
<svg width="66px" height="60px" viewBox="0 0 66 60" version="1.1" xmlns="http://www.w3.org/2000/svg" xmlns:xlink="http://www.w3.org/1999/xlink">
    <!-- Generator: Sketch 52.2 (67145) - http://www.bohemiancoding.com/sketch -->
    <title>business-management-briefcase-setting-setup</title>
    <desc>Created with Sketch.</desc>
    <g id="LCN-onboarding" stroke="none" stroke-width="1" fill="none" fill-rule="evenodd">
        <g id="before-you-begin3" transform="translate(-948.000000, -298.000000)">
            <g id="Group" transform="translate(748.000000, 260.000000)">
                <g id="Group-4">
                    <g id="Group-7">
                        <g id="Group-9" transform="translate(64.000000, 38.000000)">
                            <g id="business-management-briefcase-setting-setup" transform="translate(136.000000, 0.000000)">
                                <path d="M66,45.2530435 L66,14.3478261 C66,13.6274547 65.4090277,13.0434783 64.6800264,13.0434783 L47.5190496,13.0434783 L47.5190496,6.52173913 C47.5190496,2.92565217 44.5583488,0 40.9191816,0 L25.0794984,0 C21.4403312,0 18.4796304,2.92565217 18.4796304,6.52173913 L18.4796304,13.0434783 L1.3199736,13.0434783 C0.590972311,13.0434783 0,13.6274547 0,14.3478261 L0,58.6956522 C0,59.4160236 0.590972311,60 1.3199736,60 L66,60 L66,45.2530435 Z M21.1195776,6.52173913 C21.1195776,4.36434783 22.8962621,2.60869565 25.0794984,2.60869565 L40.9191816,2.60869565 C43.102418,2.60869565 44.8791024,4.36434783 44.8791024,6.52173913 L44.8791024,13.0434783 L42.2391552,13.0434783 L42.2391552,6.52173913 C42.2391552,5.80136772 41.6481829,5.2173913 40.9191816,5.2173913 L25.0794984,5.2173913 C24.3504971,5.2173913 23.7595248,5.80136772 23.7595248,6.52173913 L23.7595248,13.0434783 L21.1195776,13.0434783 L21.1195776,6.52173913 Z M26.399472,13.0434783 L26.399472,7.82608696 L39.599208,7.82608696 L39.599208,13.0434783 L26.399472,13.0434783 Z M2.6399472,15.6521739 L63.3587328,15.6521739 L63.3587328,32.0686957 L60.1723166,35.2173913 L38.2792344,35.2173913 L38.2792344,31.3043478 C38.2792344,30.5839764 37.6882621,30 36.9592608,30 L29.0394192,30 C28.3104179,30 27.7194456,30.5839764 27.7194456,31.3043478 L27.7194456,35.2173913 L5.82636347,35.2173913 L2.6399472,32.0686957 L2.6399472,15.6521739 Z M30.3593928,37.826087 L35.6392872,37.826087 L35.6392872,40.4347826 L30.3593928,40.4347826 L30.3593928,37.826087 Z M30.3593928,35.2173913 L30.3593928,32.6086957 L35.6392872,32.6086957 L35.6392872,35.2173913 L30.3593928,35.2173913 Z M2.6399472,57.3913043 L2.6399472,35.7573913 L4.34667307,37.443913 C4.59391112,37.6889082 4.92975748,37.8264444 5.2798944,37.826087 L27.7194456,37.826087 L27.7194456,41.7391304 C27.7194456,42.4595018 28.3104179,43.0434783 29.0394192,43.0434783 L36.9592608,43.0434783 C37.6882621,43.0434783 38.2792344,42.4595018 38.2792344,41.7391304 L38.2792344,37.826087 L60.7187856,37.826087 C61.0685786,37.826087 61.4051719,37.6891304 61.652007,37.443913 L63.3587328,35.7573913 L63.3587328,41.7391304 L63.3587328,57.39 L2.6399472,57.39 L2.6399472,57.3913043 Z" id="Shape" fill="#C72364" fill-rule="nonzero"></path>
                                <polygon id="Path" points="5 52 8 52 8 55 5 55"></polygon>
                                <polygon id="Path" points="10 52 13 52 13 55 10 55"></polygon>
                                <polygon id="Path" points="16 52 19 52 19 55 16 55"></polygon>
                            </g>
                        </g>
                    </g>
                </g>
            </g>
        </g>
    </g>
</svg>