<svg width="34" height="32" viewBox="0 0 34 32" version="1.1" xmlns="http://www.w3.org/2000/svg" xmlns:xlink="http://www.w3.org/1999/xlink">
<title>Group</title>
<desc>Created using Figma</desc>
<g id="Canvas" transform="translate(-7909 1386)">
<g id="Group">
<g id="Group">
<g id="Group">
<g id="Vector">
<use xlink:href="#path0_fill" transform="translate(7909.08 -1386)" fill="#138489"/>
</g>
</g>
</g>
</g>
</g>
<defs>
<path id="path0_fill" fill-rule="evenodd" d="M 6.92 31.84L 5.111 31.84L 6.176 30.378C 6.982 29.273 7.509 27.864 7.779 26.085C 2.755 23.839 -1.78814e-09 19.545 -1.78814e-09 13.92C -1.78814e-09 5.334 6.484 -1.78814e-09 16.92 -1.78814e-09C 27.356 -1.78814e-09 33.84 5.334 33.84 13.92C 33.84 22.636 27.515 27.84 16.92 27.84C 16.684 27.84 16.451 27.834 16.219 27.825C 14.63 29.74 11.779 31.84 6.92 31.84ZM 16.92 1.84C 7.478 1.84 1.84 6.356 1.84 13.92C 1.84 20.409 5.8 23.339 9.122 24.654L 9.775 24.913L 9.697 25.612C 9.513 27.27 9.145 28.688 8.579 29.9C 11.976 29.477 13.956 27.783 15.055 26.332L 15.345 25.949L 15.962 25.974C 16.279 25.987 16.597 26 16.92 26C 30.53 26 32 17.552 32 13.92C 32 6.356 26.362 1.84 16.92 1.84Z"/>
</defs>
</svg>
