<?xml version="1.0" encoding="UTF-8"?>
<svg width="62px" height="62px" viewBox="0 0 62 62" version="1.1" xmlns="http://www.w3.org/2000/svg" xmlns:xlink="http://www.w3.org/1999/xlink">
    <!-- Generator: Sketch 48.2 (47327) - http://www.bohemiancoding.com/sketch -->
    <title>cv</title>
    <desc>Created with Sketch.</desc>
    <defs></defs>
    <g id="Assets" stroke="none" stroke-width="1" fill="none" fill-rule="evenodd" stroke-linecap="square">
        <g id="cv" transform="translate(1.000000, 1.000000)" stroke="#777777" stroke-width="2">
            <path d="M12,34 L0,34 L0,54 C0,57.3 2.7,60 6,60" id="Shape"></path>
            <path d="M12,0 C12,0 12,50.7 12,54 C12,57.3 9.3,60 6,60 L54,60 C57.3,60 60,57.3 60,54 L60,0 L12,0 Z" id="Shape"></path>
            <path d="M42,10 L50,10" id="Shape"></path>
            <path d="M42,20 L50,20" id="Shape"></path>
            <path d="M22,30 L50,30" id="Shape"></path>
            <rect id="Rectangle-path" x="22" y="10" width="12" height="10"></rect>
            <path d="M30,50 L22,50" id="Shape"></path>
            <path d="M30,40 L22,40" id="Shape"></path>
            <rect id="Rectangle-path" x="38" y="40" width="12" height="10"></rect>
        </g>
    </g>
</svg>