<?xml version="1.0" encoding="UTF-8"?>
<svg width="132px" height="132px" viewBox="0 0 132 132" version="1.1" xmlns="http://www.w3.org/2000/svg" xmlns:xlink="http://www.w3.org/1999/xlink">
    <!-- Generator: Sketch 52.2 (67145) - http://www.bohemiancoding.com/sketch -->
    <title>Group</title>
    <desc>Created with Sketch.</desc>
    <defs>
        <circle id="path-1" cx="50" cy="50" r="50"></circle>
        <filter x="-28.0%" y="-20.0%" width="156.0%" height="156.0%" filterUnits="objectBoundingBox" id="filter-2">
            <feOffset dx="0" dy="8" in="SourceAlpha" result="shadowOffsetOuter1"></feOffset>
            <feGaussianBlur stdDeviation="8" in="shadowOffsetOuter1" result="shadowBlurOuter1"></feGaussianBlur>
            <feColorMatrix values="0 0 0 0 0   0 0 0 0 0   0 0 0 0 0  0 0 0 0.1 0" type="matrix" in="shadowBlurOuter1"></feColorMatrix>
        </filter>
    </defs>
    <g id="LCN-onboarding" stroke="none" stroke-width="1" fill="none" fill-rule="evenodd">
        <g id="help_modal" transform="translate(-654.000000, -124.000000)" fill-rule="nonzero">
            <g id="Group-3" transform="translate(240.000000, 132.000000)">
                <g id="Group" transform="translate(430.000000, 0.000000)">
                    <g id="Oval">
                        <use fill="black" fill-opacity="1" filter="url(#filter-2)" xlink:href="#path-1"></use>
                        <use fill="#FFFFFF" xlink:href="#path-1"></use>
                    </g>
                    <g id="paper-help-roll-scroll-vikings-game-fancy" transform="translate(30.000000, 22.000000)" fill="#333333">
                        <path d="M1.6000183,22.2963056 L8.00001409,22.2963056 C8.8836691,22.2963056 9.60001303,21.5832779 9.60001303,20.7037137 L9.60001303,13.1261615 L13.1888107,9.55557054 L26.8128017,9.55557054 L30.3999993,13.1261615 L30.3999993,18.439048 L14.5600098,31.3390423 C13.4440334,32.2451789 12.7975535,33.6035217 12.8000109,35.0370406 L12.8000109,41.4074081 C12.8000109,42.2869723 13.5163549,43 14.4000099,43 L20.8000057,43 C21.6836607,43 22.4000046,42.2869723 22.4000046,41.4074081 L22.4000046,37.3017063 L38.2399942,24.401712 C39.3559705,23.4955754 40.0024505,22.1372326 39.999993,20.7037137 L39.999993,11.1481624 C39.999993,9.87249632 39.5007933,8.67168205 38.5935939,7.77027504 L32.1935982,1.39990753 C31.2958454,0.500550555 30.073708,-0.00359161432 28.8000004,1.92640943e-05 L11.200012,1.92640943e-05 C9.91841282,1.92640943e-05 8.71201362,0.49690793 7.80641421,1.39990753 L1.40641843,7.77027504 C0.502878591,8.66387175 -0.00360831874,9.88035131 1.93536907e-05,11.1481624 L1.93536907e-05,20.7037137 C1.93536907e-05,21.5832779 0.716363282,22.2963056 1.6000183,22.2963056 Z M3.20001725,11.1481624 C3.20001725,10.7293108 3.37121713,10.318422 3.66881694,10.0222 L10.0688127,3.65183244 C10.3664125,3.35401776 10.7792123,3.18520302 11.200012,3.18520302 L28.8000004,3.18520302 C29.2208001,3.18520302 29.6335998,3.35401776 29.9311996,3.65183244 L36.3311954,10.0222 C36.6287952,10.318422 36.7999951,10.7293108 36.7999951,11.1481624 L36.7999951,20.7037137 C36.800814,21.181221 36.5850454,21.6335832 36.2127955,21.9347872 L19.7856063,35.312559 C19.4154719,35.6166346 19.2007883,36.0691197 19.2000067,36.5468177 L19.2000067,39.8148162 L16.0000088,39.8148162 L16.0000088,35.0370406 C16.0000088,34.5576704 16.2144087,34.1085595 16.5872084,33.8059671 L33.0143976,20.4281953 C33.3839974,20.1240102 33.5999972,19.6717142 33.5999972,19.1939366 L33.5999972,12.4668285 C33.6006128,12.0443417 33.4318748,11.6390669 33.1311975,11.340866 L28.6048005,6.8370162 C28.3052127,6.53773091 27.898053,6.36977402 27.4736013,6.37038678 L12.5248111,6.37038678 C12.1003945,6.36995038 11.6933001,6.53788031 11.3936119,6.8370162 L6.86721483,11.340866 C6.5677227,11.639726 6.39968128,12.0447098 6.40001514,12.4668285 L6.40001514,19.1111218 L3.20001725,19.1111218 L3.20001725,11.1481624 Z" id="Shape"></path>
                        <path d="M21.3333333,46 L14.6666667,46 C13.7461921,46 13,46.7461921 13,47.6666667 L13,54.3333333 C13,55.2538079 13.7461921,56 14.6666667,56 L21.3333333,56 C22.2538079,56 23,55.2538079 23,54.3333333 L23,47.6666667 C23,46.7461921 22.2538079,46 21.3333333,46 Z M19.6666667,52.6666667 L16.3333333,52.6666667 L16.3333333,49.3333333 L19.6666667,49.3333333 L19.6666667,52.6666667 Z" id="Shape"></path>
                    </g>
                </g>
            </g>
        </g>
    </g>
</svg>