<?xml version="1.0" encoding="UTF-8"?>
<svg width="30px" height="42px" viewBox="0 0 20 28" version="1.1" xmlns="http://www.w3.org/2000/svg" xmlns:xlink="http://www.w3.org/1999/xlink">
    <!-- Generator: Sketch 52.2 (67145) - http://www.bohemiancoding.com/sketch -->
    <title>paper-help-roll-scroll-vikings-game-fancy</title>
    <desc>Created with Sketch.</desc>
    <g id="LCN-onboarding" stroke="none" stroke-width="1" fill="none" fill-rule="evenodd">
        <g id="help_from-page" transform="translate(-1381.000000, -143.000000)" fill="#333333" fill-rule="nonzero">
            <g id="Group" transform="translate(1366.000000, 132.000000)">
                <g id="paper-help-roll-scroll-vikings-game-fancy" transform="translate(15.000000, 11.000000)">
                    <path d="M0.8,11.2 L4,11.2 C4.4418278,11.2 4.8,10.8418278 4.8,10.4 L4.8,6.5936 L6.5944,4.8 L13.4064,4.8 L15.2,6.5936 L15.2,9.2624 L7.28,15.7424 C6.72201145,16.1975758 6.39877127,16.8799064 6.4,17.6 L6.4,20.8 C6.4,21.2418278 6.7581722,21.6 7.2,21.6 L10.4,21.6 C10.8418278,21.6 11.2,21.2418278 11.2,20.8 L11.2,18.7376 L19.12,12.2576 C19.6779885,11.8024242 20.0012287,11.1200936 20,10.4 L20,5.6 C20,4.9592 19.7504,4.356 19.2968,3.9032 L16.0968,0.7032 C15.6479233,0.251429784 15.0368542,-0.00181383741 14.4,1.63780099e-13 L5.6,1.63780099e-13 C4.9592,1.63780099e-13 4.356,0.2496 3.9032,0.7032 L0.7032,3.9032 C0.251429784,4.35207669 -0.00181383741,4.96314577 -2.00106602e-13,5.6 L-2.00106602e-13,10.4 C-2.00106602e-13,10.8418278 0.3581722,11.2 0.8,11.2 Z M1.6,5.6 C1.6,5.3896 1.6856,5.1832 1.8344,5.0344 L5.0344,1.8344 C5.1832,1.6848 5.3896,1.6 5.6,1.6 L14.4,1.6 C14.6104,1.6 14.8168,1.6848 14.9656,1.8344 L18.1656,5.0344 C18.3144,5.1832 18.4,5.3896 18.4,5.6 L18.4,10.4 C18.4004094,10.6398642 18.2925251,10.8670974 18.1064,11.0184 L9.8928,17.7384 C9.70773267,17.891145 9.6003908,18.11844 9.6,18.3584 L9.6,20 L8,20 L8,17.6 C8,17.3592 8.1072,17.1336 8.2936,16.9816 L16.5072,10.2616 C16.692,10.1088 16.8,9.8816 16.8,9.6416 L16.8,6.2624 C16.8003078,6.05017399 16.7159387,5.846594 16.5656,5.6968 L14.3024,3.4344 C14.152606,3.28406127 13.949026,3.19969219 13.7368,3.2 L6.2624,3.2 C6.05019156,3.19978078 5.84664424,3.28413632 5.6968,3.4344 L3.4336,5.6968 C3.28385383,5.84692507 3.19983307,6.05035891 3.2,6.2624 L3.2,9.6 L1.6,9.6 L1.6,5.6 Z" id="Shape"></path>
                    <path d="M10.4,23.2 L7.2,23.2 C6.7581722,23.2 6.4,23.5581722 6.4,24 L6.4,27.2 C6.4,27.6418278 6.7581722,28 7.2,28 L10.4,28 C10.8418278,28 11.2,27.6418278 11.2,27.2 L11.2,24 C11.2,23.5581722 10.8418278,23.2 10.4,23.2 Z M9.6,26.4 L8,26.4 L8,24.8 L9.6,24.8 L9.6,26.4 Z" id="Shape"></path>
                </g>
            </g>
        </g>
    </g>
</svg>