<svg width="90" height="83" viewBox="0 0 90 83" version="1.1" xmlns="http://www.w3.org/2000/svg" xmlns:xlink="http://www.w3.org/1999/xlink">
<title>Group</title>
<desc>Created using Figma</desc>
<g id="Canvas" transform="translate(-10285 1608)">
<g id="Group">
<g id="Vector">
<use xlink:href="#path0_fill" transform="translate(10293.9 -1593.85)" fill="#C81D63"/>
</g>
<g id="Vector">
<use xlink:href="#path1_fill" transform="translate(10349.1 -1608)" fill="#C81D63"/>
</g>
<g id="Vector">
<use xlink:href="#path2_fill" transform="translate(10363.5 -1590.55)" fill="#C81D63"/>
</g>
<g id="Vector">
<use xlink:href="#path3_fill" transform="translate(10312.9 -1606.01)" fill="#C81D63"/>
</g>
<g id="Vector">
<use xlink:href="#path4_fill" transform="translate(10285 -1606.01)" fill="#C81D63"/>
</g>
</g>
</g>
<defs>
<path id="path0_fill" d="M 19.51 10.223C 12.391 10.884 10.884 12.391 10.223 19.51C 10.187 19.902 9.617 19.902 9.581 19.51C 8.92 12.391 7.413 10.884 0.294 10.223C -0.0980002 10.187 -0.0980002 9.617 0.294 9.581C 7.413 8.92 8.92 7.413 9.581 0.293999C 9.617 -0.0980007 10.187 -0.0980007 10.223 0.293999C 10.884 7.413 12.391 8.92 19.51 9.581C 19.901 9.617 19.901 10.186 19.51 10.223Z"/>
<path id="path1_fill" d="M 12.1213 6.35125C 7.69825 6.76225 6.76225 7.69825 6.35125 12.1213C 6.32825 12.3643 5.97425 12.3643 5.95225 12.1213C 5.54125 7.69825 4.60525 6.76225 0.18225 6.35125C -0.0607496 6.32825 -0.0607496 5.97425 0.18225 5.95225C 4.60525 5.54125 5.54125 4.60525 5.95225 0.18225C 5.97525 -0.0607502 6.32925 -0.0607502 6.35125 0.18225C 6.76225 4.60525 7.69825 5.54125 12.1213 5.95225C 12.3653 5.97525 12.3653 6.32925 12.1213 6.35125Z"/>
<path id="path2_fill" d="M 9.987 5.233C 6.343 5.571 5.571 6.343 5.233 9.987C 5.214 10.187 4.923 10.187 4.904 9.987C 4.566 6.343 3.794 5.571 0.149999 5.233C -0.0500014 5.214 -0.0500014 4.923 0.149999 4.904C 3.794 4.566 4.566 3.794 4.904 0.15C 4.923 -0.0499995 5.214 -0.0499995 5.233 0.15C 5.571 3.794 6.343 4.566 9.987 4.904C 10.188 4.923 10.188 5.215 9.987 5.233Z"/>
<path id="path3_fill" d="M 12.8635 6.7405C 8.1695 7.1765 7.1765 8.1695 6.7405 12.8635C 6.7165 13.1215 6.3405 13.1215 6.3165 12.8635C 5.8805 8.1695 4.8875 7.1765 0.1935 6.7405C -0.0645004 6.7165 -0.0645004 6.3405 0.1935 6.3165C 4.8875 5.8805 5.8805 4.8875 6.3165 0.1935C 6.3405 -0.0644998 6.7165 -0.0644998 6.7405 0.1935C 7.1765 4.8875 8.1695 5.8805 12.8635 6.3165C 13.1215 6.3415 13.1215 6.7165 12.8635 6.7405Z"/>
<path id="path4_fill" d="M 90 35.904C 90 31.109 86.099 27.207 81.31 27.207L 61.343 26.927L 63.184 12.2C 63.184 7.225 59.918 3.96729e-07 54.8 3.96729e-07L 49.352 3.96729e-07L 46.564 14.83L 33.977 34.327C 32.641 36.198 31.692 37.759 31.004 39.16C 29.825 37.862 28.131 37.042 26.244 37.042L 6.439 37.042C 2.889 37.042 0 39.93 0 43.481L 0 73.994C 0 77.544 2.889 80.432 6.439 80.432L 26.244 80.432C 28.853 80.432 31.1 78.869 32.11 76.633C 34.032 78.681 36.755 79.969 39.779 79.969L 72.537 79.969C 77.332 79.969 81.233 76.068 81.233 71.273C 81.233 70.189 81.038 69.142 80.652 68.153C 84.353 67.102 86.977 63.681 86.977 59.785C 86.977 58.424 86.652 57.077 86.033 55.862C 88.492 54.259 90 51.515 90 48.58C 90 46.154 89.003 43.878 87.245 42.242C 89.003 40.606 90 38.33 90 35.904ZM 22.272 75.867C 19.755 75.867 17.705 73.816 17.705 71.3C 17.705 68.783 19.756 66.733 22.272 66.733C 24.788 66.733 26.831 68.784 26.831 71.3C 26.83 73.816 24.788 75.867 22.272 75.867ZM 83.744 43.675C 85.626 44.62 86.796 46.5 86.796 48.581C 86.796 50.873 85.337 52.944 83.165 53.736L 81.019 54.521L 82.487 56.272C 83.316 57.26 83.773 58.508 83.773 59.786C 83.773 62.814 81.309 65.278 78.281 65.278L 74.773 65.278L 76.835 67.875C 77.616 68.861 78.029 70.037 78.029 71.274C 78.029 74.301 75.565 76.765 72.537 76.765L 39.779 76.765C 36.357 76.765 33.484 74.403 32.683 71.226L 32.683 44.186C 33.056 41.909 34.037 39.755 36.627 36.127L 49.542 16.127L 52.011 3.205L 54.801 3.205C 57.915 3.205 59.981 8.619 59.984 12.142L 58.01 30.116L 81.303 30.412C 84.331 30.412 86.795 32.876 86.795 35.904C 86.795 37.985 85.626 39.865 83.743 40.81L 80.893 42.242L 83.744 43.675Z"/>
</defs>
</svg>
