<?xml version="1.0" encoding="UTF-8"?>
<svg width="70px" height="63px" viewBox="0 0 70 63" version="1.1" xmlns="http://www.w3.org/2000/svg" xmlns:xlink="http://www.w3.org/1999/xlink">
    <!-- Generator: Sketch 52.2 (67145) - http://www.bohemiancoding.com/sketch -->
    <title>seminar-talk-keynote-speak-speech</title>
    <desc>Created with Sketch.</desc>
    <g id="LCN-onboarding" stroke="none" stroke-width="1" fill="none" fill-rule="evenodd">
        <g id="before-you-begin4" transform="translate(-945.000000, -298.000000)">
            <g id="Group" transform="translate(748.000000, 260.000000)">
                <g id="Group-4">
                    <g id="Group-7">
                        <g id="seminar-talk-keynote-speak-speech" transform="translate(197.000000, 38.000000)">
                            <path d="M36.25,15 C40.38625,15 43.75,11.63625 43.75,7.5 C43.75,3.36375 40.38625,0 36.25,0 C32.11375,0 28.75,3.36375 28.75,7.5 C28.75,11.63625 32.11375,15 36.25,15 Z M36.25,2.5 C39.0075,2.5 41.25,4.7425 41.25,7.5 C41.25,10.2575 39.0075,12.5 36.25,12.5 C33.4925,12.5 31.25,10.2575 31.25,7.5 C31.25,4.7425 33.4925,2.5 36.25,2.5 Z" id="Shape" fill="#E45F3D" fill-rule="nonzero"></path>
                            <path d="M30,56.25 C30,59.69625 32.80375,62.5 36.25,62.5 C39.69625,62.5 42.5,59.69625 42.5,56.25 C42.5,52.80375 39.69625,50 36.25,50 C32.80375,50 30,52.80375 30,56.25 Z M40,56.25 C40,58.3175 38.3175,60 36.25,60 C34.1825,60 32.5,58.3175 32.5,56.25 C32.5,54.1825 34.1825,52.5 36.25,52.5 C38.3175,52.5 40,54.1825 40,56.25 Z" id="Shape" fill="#E45F3D" fill-rule="nonzero"></path>
                            <path d="M17.5525,17.85875 C17.63,18.115 17.78625,18.34 18,18.5 L27.5,25.625 L27.5,33.75 L20.225,33.75 L21.16625,28.1 L23.3825,25.88375 L21.615,24.11625 L19.115,26.61625 C18.9307057,26.8005175 18.8087481,27.0378759 18.76625,27.295 L17.69125,33.75 L15,33.75 L15,36.25 L17.5,36.25 L17.5,46.25 L20,46.25 L20,36.25 L52.5,36.25 L52.5,46.25 L55,46.25 L55,36.25 L57.5,36.25 L57.5,33.75 L50,33.75 L50,23.75 C50,20.30375 47.19625,17.5 43.75,17.5 L31.62875,17.5 L24.78,12.93375 L21.17125,3.31125 C20.9494699,2.71508052 20.3139595,2.38196313 19.6975,2.53875 L14.6975,3.78875 C14.3665056,3.87201392 14.0838892,4.08687495 13.9151387,4.38354548 C13.7463882,4.68021601 13.7061506,5.0329457 13.80375,5.36 L17.5525,17.85875 Z M19.22125,5.23375 L22.58,14.19 C22.6725,14.435 22.84,14.645 23.0575,14.79 L30.5575,19.79 C30.7625793,19.9267465 31.0035105,19.9998087 31.25,20 L43.75,20 C45.8175,20 47.5,21.6825 47.5,23.75 L47.5,33.75 L45,33.75 L45,25 L42.5,25 L42.5,33.75 L37.5,33.75 L37.5,25 L38.75,25 L38.75,22.5 L33.75,22.5 L33.75,25 L35,25 L35,33.75 L30,33.75 L30,25 C30,24.6065534 29.8147573,24.236068 29.5,24 L19.82875,16.74625 L16.57375,5.89375 L19.22125,5.23375 Z" id="Shape" fill="#E45F3D" fill-rule="nonzero"></path>
                            <path d="M66.25,0 L50,0 C47.9325,0 46.25,1.6825 46.25,3.75 L46.25,8.75 C46.25,10.8175 47.9325,12.5 50,12.5 L50,16.25 C50.0001079,16.7554949 50.3046594,17.2111676 50.7716818,17.4045975 C51.2387042,17.5980274 51.7762572,17.4911349 52.13375,17.13375 L56.7675,12.5 L66.25,12.5 C68.3175,12.5 70,10.8175 70,8.75 L70,3.75 C70,1.6825 68.3175,0 66.25,0 Z M67.5,8.75 C67.5,9.44 66.93875,10 66.25,10 L56.25,10 C55.9184243,9.99965747 55.6003816,10.131463 55.36625,10.36625 L52.5,13.2325 L52.5,11.25 C52.5,10.5596441 51.9403559,10 51.25,10 L50,10 C49.31125,10 48.75,9.44 48.75,8.75 L48.75,3.75 C48.75,3.06 49.31125,2.5 50,2.5 L66.25,2.5 C66.93875,2.5 67.5,3.06 67.5,3.75 L67.5,8.75 Z" id="Shape" fill="#E45F3D" fill-rule="nonzero"></path>
                            <path d="M12.5,30 C14.5675,30 16.25,28.3175 16.25,26.25 L16.25,23.75 C16.25,21.6825 14.5675,20 12.5,20 L12.5,16.25 C12.4998921,15.7445051 12.1953406,15.2888324 11.7283182,15.0954025 C11.2612958,14.9019726 10.7237428,15.0088651 10.36625,15.36625 L5.7325,20 L3.75,20 C1.6825,20 0,21.6825 0,23.75 L0,26.25 C0,28.3175 1.6825,30 3.75,30 L12.5,30 Z M2.5,26.25 L2.5,23.75 C2.5,23.06 3.06125,22.5 3.75,22.5 L6.25,22.5 C6.58125,22.5 6.9,22.36875 7.13375,22.13375 L10,19.2675 L10,21.25 C10,21.9403559 10.5596441,22.5 11.25,22.5 L12.5,22.5 C13.18875,22.5 13.75,23.06 13.75,23.75 L13.75,26.25 C13.75,26.94 13.18875,27.5 12.5,27.5 L3.75,27.5 C3.06125,27.5 2.5,26.94 2.5,26.25 Z" id="Shape" fill="#E45F3D" fill-rule="nonzero"></path>
                            <polygon id="Path" points="51.25 5 65 5 65 7.5 51.25 7.5"></polygon>
                            <path d="M52.5,56.25 C52.5,59.69625 55.30375,62.5 58.75,62.5 C62.19625,62.5 65,59.69625 65,56.25 C65,52.80375 62.19625,50 58.75,50 C55.30375,50 52.5,52.80375 52.5,56.25 Z M58.75,52.5 C60.8175,52.5 62.5,54.1825 62.5,56.25 C62.5,58.3175 60.8175,60 58.75,60 C56.6825,60 55,58.3175 55,56.25 C55,54.1825 56.6825,52.5 58.75,52.5 Z" id="Shape" fill="#E45F3D" fill-rule="nonzero"></path>
                            <path d="M7.5,56.25 C7.5,59.69625 10.30375,62.5 13.75,62.5 C17.19625,62.5 20,59.69625 20,56.25 C20,52.80375 17.19625,50 13.75,50 C10.30375,50 7.5,52.80375 7.5,56.25 Z M17.5,56.25 C17.5,58.3175 15.8175,60 13.75,60 C11.6825,60 10,58.3175 10,56.25 C10,54.1825 11.6825,52.5 13.75,52.5 C15.8175,52.5 17.5,54.1825 17.5,56.25 Z" id="Shape" fill="#E45F3D" fill-rule="nonzero"></path>
                            <polygon id="Path" points="47.5 38.75 50 38.75 50 41.25 47.5 41.25"></polygon>
                            <polygon id="Path" points="42.5 38.75 45 38.75 45 41.25 42.5 41.25"></polygon>
                            <polygon id="Path" points="37.5 38.75 40 38.75 40 41.25 37.5 41.25"></polygon>
                        </g>
                    </g>
                </g>
            </g>
        </g>
    </g>
</svg>