<?xml version="1.0" encoding="UTF-8"?>
<svg width="64px" height="64px" viewBox="0 0 64 64" version="1.1" xmlns="http://www.w3.org/2000/svg" xmlns:xlink="http://www.w3.org/1999/xlink">
    <!-- Generator: Sketch 52.2 (67145) - http://www.bohemiancoding.com/sketch -->
    <title>map-location-pin-direction</title>
    <desc>Created with Sketch.</desc>
    <g id="LCN-onboarding" stroke="none" stroke-width="1" fill="none" fill-rule="evenodd">
        <g id="before-you-begin1" transform="translate(-949.000000, -300.000000)">
            <g id="Group" transform="translate(748.000000, 260.000000)">
                <g id="Group-4">
                    <g id="Group-7">
                        <g id="Group-9" transform="translate(64.000000, 40.000000)">
                            <g id="map-location-pin-direction" transform="translate(137.000000, 0.000000)">
                                <path d="M63.597,6.197 C63.3436921,6.00782643 63.0155576,5.95029154 62.713,6.042 L42.987,11.96 L40.983,11.414 C40.987,11.276 41,11.135 41,11 C41,3.495 38.458,0 33,0 C28.532,0 26.059,2.291 25.278,7.179 L20.223,6.025 C20.212,6.022 20.201,6.027 20.19,6.025 C20.132,6.014 20.074,6.025 20.014,6.024 C19.918,6.022 19.825,6.018 19.734,6.044 C19.722,6.047 19.711,6.043 19.699,6.047 L0.699,12.047 C0.282731563,12.177718 -0.000368486884,12.5636899 -1.11022302e-15,13 L-1.11022302e-15,63 C0.00164740056,63.5516009 0.448399067,63.9983526 1,64 C1.1021449,63.9997981 1.20365592,63.9839476 1.301,63.953 L20.025,58.04 L42.747,63.968 C42.9245525,64.0138998 43.1112686,64.0104421 43.287,63.958 L63.287,57.958 C63.71,57.831 64,57.441 64,57 L64,7 C64,6.684 63.851,6.387 63.597,6.197 Z M33,2 C36.116,2 39,3.09 39,11 C39,11.358 38.981,11.727 38.955,12.098 C38.52,18.148 34.732,25.756 33,28.957 C31.159,25.559 27,17.195 27,11 C27,10.122 27.04,9.304 27.121,8.499 C27.698,2.787 30.288,2 33,2 Z M2,59 L4,59 L4,57 L2,57 L2,55 L4,55 L4,53 L2,53 L2,51 L4,51 L4,49 L2,49 L2,47 L4,47 L4,45 L2,45 L2,43 L4,43 L4,41 L2,41 L2,13.732 L19,8.364 L19,41 L18,41 L18,43 L19,43 L19,45 L18,45 L18,47 L19,47 L19,49 L18,49 L18,51 L19,51 L19,53 L18,53 L18,55 L19,55 L19,56.268 L18,56.584 L18,55 L16,55 L16,57 L16.681,57 L16,57.215 L16,57 L14,57 L14,57.846 L12,58.478 L12,57 L10,57 L10,59 L10.347,59 L10,59.11 L10,59 L8,59 L8,59.741 L6,60.373 L6,59 L4,59 L4,61 L4.013,61 L4,61.004 L4,61 L2,61 L2,59 Z M21,8.254 L25.058,9.181 C25.054,9.239 25.056,9.301 25.052,9.359 C25.0186442,9.90537478 25.0013034,10.4526095 25,11 C25,19.463 31.85,31.024 32.142,31.513 C32.3222267,31.8151975 32.6481407,32.0002999 33,32.0002999 C33.3518593,32.0002999 33.6777733,31.8151975 33.858,31.513 C33.889,31.461 34.005,31.265 34.182,30.955 L34.188,30.944 C34.274,30.793 34.376,30.612 34.489,30.408 L34.512,30.367 C34.623,30.167 34.745,29.943 34.878,29.698 L34.924,29.613 C35.056,29.367 35.197,29.101 35.346,28.816 L35.397,28.719 C35.547,28.431 35.703,28.126 35.865,27.804 L35.929,27.676 C36.091,27.353 36.257,27.015 36.427,26.662 L36.495,26.52 C36.667,26.161 36.841,25.791 37.017,25.406 L37.08,25.267 C37.259,24.873 37.44,24.469 37.62,24.052 L37.667,23.941 C37.852,23.51 38.036,23.071 38.218,22.621 L38.242,22.56 C38.422,22.112 38.599,21.655 38.772,21.191 L38.801,21.114 C38.971,20.656 39.134,20.192 39.292,19.724 L39.343,19.576 C39.495,19.122 39.638,18.664 39.775,18.204 C39.794,18.14 39.814,18.077 39.832,18.013 C39.964,17.562 40.086,17.109 40.2,16.657 L40.255,16.44 C40.364,15.993 40.463,15.546 40.551,15.101 L40.595,14.874 C40.679,14.431 40.751,13.992 40.81,13.556 C40.815,13.519 40.824,13.48 40.828,13.443 L42,13.764 L42,61.706 L21,56.227 L21,8.254 Z M62,10 L60,10 L60,12 L62,12 L62,14 L60,14 L60,16 L62,16 L62,18 L60,18 L60,20 L62,20 L62,22 L60,22 L60,24 L62,24 L62,26 L60,26 L60,28 L62,28 L62,30 L60,30 L60,32 L62,32 L62,34 L60,34 L60,36 L62,36 L62,56.256 L44,61.656 L44,36 L46,36 L46,34 L44,34 L44,32 L46,32 L46,30 L44,30 L44,28 L46,28 L46,26 L44,26 L44,24 L46,24 L46,22 L44,22 L44,20 L46,20 L46,18 L44,18 L44,16 L46,16 L46,14 L44,14 L44,13.744 L46,13.144 L46,14 L48,14 L48,12.544 L52,11.344 L52,12 L54,12 L54,10.744 L56,10.144 L56,12 L58,12 L58,10 L56.48,10 L58,9.544 L58,10 L60,10 L60,8.944 L62,8.344 L62,10 Z" id="Shape" fill="#138489" fill-rule="nonzero"></path>
                                <path d="M53,28 C48.907,28 47,30.437 47,35.667 C47,41.416 51.947,49.21 52.158,49.539 C52.341856,49.8259568 52.6591962,49.9995225 53,49.9995225 C53.3408038,49.9995225 53.658144,49.8259568 53.842,49.539 C54.053,49.21 59,41.416 59,35.667 C59,30.437 57.093,28 53,28 Z M53,47.042 C51.613,44.596 49,39.483 49,35.667 C49,30.438 51.065,30 53,30 C54.935,30 57,30.438 57,35.667 C57,39.479 54.387,44.595 53,47.042 Z" id="Shape" fill="#138489" fill-rule="nonzero"></path>
                                <path d="M33,12 C35.206,12 37,10.206 37,8 C37,5.794 35.206,4 33,4 C30.794,4 29,5.794 29,8 C29,10.206 30.794,12 33,12 Z M33,6 C34.103,6 35,6.897 35,8 C35,9.103 34.103,10 33,10 C31.897,10 31,9.103 31,8 C31,6.897 31.897,6 33,6 Z" id="Shape" fill="#138489" fill-rule="nonzero"></path>
                                <path d="M53,31 C51.346,31 50,32.346 50,34 C50,35.654 51.346,37 53,37 C54.654,37 56,35.654 56,34 C56,32.346 54.654,31 53,31 Z M53,35 C52.465093,34.9760723 52.0437325,34.5354419 52.0437325,34 C52.0437325,33.4645581 52.465093,33.0239277 53,33 C53.534907,33.0239277 53.9562675,33.4645581 53.9562675,34 C53.9562675,34.5354419 53.534907,34.9760723 53,35 Z" id="Shape" fill="#138489" fill-rule="nonzero"></path>
                                <path d="M10,39 C10.3408966,38.9998958 10.6582567,38.8261392 10.842,38.539 C11.053,38.21 16,30.416 16,24.667 C16,19.437 14.093,17 10,17 C5.907,17 4,19.437 4,24.667 C4,30.416 8.947,38.21 9.158,38.539 C9.34174326,38.8261392 9.6591034,38.9998958 10,39 Z M10,19 C11.935,19 14,19.438 14,24.667 C14,28.479 11.387,33.595 10,36.042 C8.613,33.596 6,28.483 6,24.667 C6,19.438 8.065,19 10,19 Z" id="Shape" fill="#138489" fill-rule="nonzero"></path>
                                <path d="M13,23 C13,21.346 11.654,20 10,20 C8.346,20 7,21.346 7,23 C7,24.654 8.346,26 10,26 C11.654,26 13,24.654 13,23 Z M9,23 C8.99959556,22.5949516 9.24333302,22.2295807 9.61747172,22.0743884 C9.99161043,21.9191962 10.4224008,22.004774 10.7088134,22.2911866 C10.995226,22.5775992 11.0808038,23.0083896 10.9256116,23.3825283 C10.7704193,23.756667 10.4050484,24.0004044 10,24 C9.449,24 9,23.552 9,23 Z" id="Shape" fill="#138489" fill-rule="nonzero"></path>
                                <path d="M39,35 L24,35 C23.4477153,35 23,35.4477153 23,36 L23,51 C23,51.5522847 23.4477153,52 24,52 L39,52 C39.5522847,52 40,51.5522847 40,51 L40,36 C40,35.4477153 39.5522847,35 39,35 Z M38,40 L35,40 L35,37 L38,37 L38,40 Z M30,45 L30,42 L33,42 L33,45 L30,45 Z M33,47 L33,50 L30,50 L30,47 L33,47 Z M28,45 L25,45 L25,42 L28,42 L28,45 Z M30,40 L30,37 L33,37 L33,40 L30,40 Z M35,42 L38,42 L38,45 L35,45 L35,42 Z M28,37 L28,40 L25,40 L25,37 L28,37 Z M25,47 L28,47 L28,50 L25,50 L25,47 Z M35,50 L35,47 L38,47 L38,50 L35,50 Z" id="Shape" fill="#138489" fill-rule="nonzero"></path>
                                <polygon id="Path" points="50 12 52 12 52 14 50 14"></polygon>
                                <polygon id="Path" points="54 12 56 12 56 14 54 14"></polygon>
                                <polygon id="Path" points="58 12 60 12 60 14 58 14"></polygon>
                                <polygon id="Path" points="48 14 50 14 50 16 48 16"></polygon>
                                <polygon id="Path" points="52 14 54 14 54 16 52 16"></polygon>
                                <polygon id="Path" points="56 14 58 14 58 16 56 16"></polygon>
                                <polygon id="Path" points="46 16 48 16 48 18 46 18"></polygon>
                                <polygon id="Path" points="50 16 52 16 52 18 50 18"></polygon>
                                <polygon id="Path" points="54 16 56 16 56 18 54 18"></polygon>
                                <polygon id="Path" points="58 16 60 16 60 18 58 18"></polygon>
                                <polygon id="Path" points="48 18 50 18 50 20 48 20"></polygon>
                                <polygon id="Path" points="52 18 54 18 54 20 52 20"></polygon>
                                <polygon id="Path" points="56 18 58 18 58 20 56 20"></polygon>
                                <polygon id="Path" points="46 20 48 20 48 22 46 22"></polygon>
                                <polygon id="Path" points="50 20 52 20 52 22 50 22"></polygon>
                                <polygon id="Path" points="54 20 56 20 56 22 54 22"></polygon>
                                <polygon id="Path" points="58 20 60 20 60 22 58 22"></polygon>
                                <polygon id="Path" points="48 22 50 22 50 24 48 24"></polygon>
                                <polygon id="Path" points="52 22 54 22 54 24 52 24"></polygon>
                                <polygon id="Path" points="56 22 58 22 58 24 56 24"></polygon>
                                <polygon id="Path" points="46 24 48 24 48 26 46 26"></polygon>
                                <polygon id="Path" points="50 24 52 24 52 26 50 26"></polygon>
                                <polygon id="Path" points="54 24 56 24 56 26 54 26"></polygon>
                                <polygon id="Path" points="58 24 60 24 60 26 58 26"></polygon>
                                <polygon id="Path" points="48 26 50 26 50 28 48 28"></polygon>
                                <polygon id="Path" points="56 26 58 26 58 28 56 28"></polygon>
                                <polygon id="Path" points="46 28 48 28 48 30 46 30"></polygon>
                                <polygon id="Path" points="58 28 60 28 60 30 58 30"></polygon>
                                <polygon id="Path" points="6 41 8 41 8 43 6 43"></polygon>
                                <polygon id="Path" points="14 41 16 41 16 43 14 43"></polygon>
                                <polygon id="Path" points="4 43 6 43 6 45 4 45"></polygon>
                                <polygon id="Path" points="8 43 10 43 10 45 8 45"></polygon>
                                <polygon id="Path" points="12 43 14 43 14 45 12 45"></polygon>
                                <polygon id="Path" points="16 43 18 43 18 45 16 45"></polygon>
                                <polygon id="Path" points="6 45 8 45 8 47 6 47"></polygon>
                                <polygon id="Path" points="10 45 12 45 12 47 10 47"></polygon>
                                <polygon id="Path" points="14 45 16 45 16 47 14 47"></polygon>
                                <polygon id="Path" points="4 47 6 47 6 49 4 49"></polygon>
                                <polygon id="Path" points="8 47 10 47 10 49 8 49"></polygon>
                                <polygon id="Path" points="12 47 14 47 14 49 12 49"></polygon>
                                <polygon id="Path" points="16 47 18 47 18 49 16 49"></polygon>
                                <polygon id="Path" points="6 49 8 49 8 51 6 51"></polygon>
                                <polygon id="Path" points="10 49 12 49 12 51 10 51"></polygon>
                                <polygon id="Path" points="14 49 16 49 16 51 14 51"></polygon>
                                <polygon id="Path" points="4 51 6 51 6 53 4 53"></polygon>
                                <polygon id="Path" points="8 51 10 51 10 53 8 53"></polygon>
                                <polygon id="Path" points="12 51 14 51 14 53 12 53"></polygon>
                                <polygon id="Path" points="16 51 18 51 18 53 16 53"></polygon>
                                <polygon id="Path" points="6 53 8 53 8 55 6 55"></polygon>
                                <polygon id="Path" points="10 53 12 53 12 55 10 55"></polygon>
                                <polygon id="Path" points="14 53 16 53 16 55 14 55"></polygon>
                                <polygon id="Path" points="4 55 6 55 6 57 4 57"></polygon>
                                <polygon id="Path" points="8 55 10 55 10 57 8 57"></polygon>
                                <polygon id="Path" points="12 55 14 55 14 57 12 57"></polygon>
                                <polygon id="Path" points="6 57 8 57 8 59 6 59"></polygon>
                            </g>
                        </g>
                    </g>
                </g>
            </g>
        </g>
    </g>
</svg>