<?xml version="1.0" encoding="UTF-8"?>
<svg width="60px" height="60px" viewBox="0 0 60 60" version="1.1" xmlns="http://www.w3.org/2000/svg" xmlns:xlink="http://www.w3.org/1999/xlink">
    <!-- Generator: Sketch 52.2 (67145) - http://www.bohemiancoding.com/sketch -->
    <title>personal-network-sharing-connection-care</title>
    <desc>Created with Sketch.</desc>
    <g id="LCN-onboarding" stroke="none" stroke-width="1" fill="none" fill-rule="evenodd">
        <g id="before-you-begin2" transform="translate(-952.000000, -300.000000)" fill="#43558E" fill-rule="nonzero">
            <g id="Group" transform="translate(748.000000, 260.000000)">
                <g id="Group-4">
                    <g id="Group-7">
                        <g id="Group-9" transform="translate(64.000000, 40.000000)">
                            <g id="personal-network-sharing-connection-care" transform="translate(140.000000, 0.000000)">
                                <path d="M56.171,40.477 L36.34,43.926 L30.707,38.293 C30.5196947,38.1051704 30.2652605,37.999726 30,38 L20,38 C20,37.4477153 19.5522847,37 19,37 L1,37 C0.44771525,37 0,37.4477153 0,38 L0,54 C0,54.5522847 0.44771525,55 1,55 L19,55 C19.5522847,55 20,54.5522847 20,54 L22.764,54 L33.455,59.346 C34.4409273,59.8418658 35.610988,59.8042191 36.563,59.246 L58.377,46.521 C59.3794974,45.9336945 59.9964853,44.8598617 59.999,43.698 C59.999,42.731 59.575,41.819 58.834,41.196 C58.0964502,40.5741031 57.1213267,40.3108234 56.171,40.477 Z M2,39 L14,39 L14,53 L2,53 L2,39 Z M18,53 L16,53 L16,39 L18,39 L18,53 Z M57.371,44.793 L35.556,57.518 C35.1859817,57.733693 34.7321707,57.7483563 34.349,57.557 L23.447,52.106 C23.3083725,52.0361065 23.1552503,51.9997956 23,52 L20,52 L20,40 L29.586,40 L37.465,47.879 C38.1380779,48.6000028 38.1186424,49.7247214 37.4210555,50.4220387 C36.7234685,51.119356 35.5987426,51.1383566 34.878,50.465 L29.707,45.293 L28.293,46.707 L33.465,51.879 C34.1810927,52.5990583 35.1554877,53.0027156 36.171,53 C38.2843945,52.9977963 39.9972443,51.2853939 40,49.172 C40.0029419,48.1559526 39.5988612,47.1810448 38.878,46.465 L38.069,45.655 L56.514,42.447 C56.8831175,42.3818641 57.2621234,42.4836397 57.5489579,42.7249204 C57.8357925,42.9662011 58.0009659,43.3221807 58,43.697 C58,44.146 57.759,44.566 57.371,44.793 Z" id="Shape"></path>
                                <path d="M55,10 C57.757,10 60,7.757 60,5 C60,2.243 57.757,0 55,0 C52.243,0 50,2.243 50,5 C50,6.033 50.315,6.994 50.854,7.792 L44.875,14.625 C43.9722993,14.2137358 42.991971,14.000621 42,14 C40.7037225,14.0005935 39.4334827,14.3639645 38.333,15.049 L23.29,7.527 C23.73,6.782 24,5.926 24,5 C24,2.243 21.757,0 19,0 C16.243,0 14,2.243 14,5 C14,7.757 16.243,10 19,10 C20.0381699,9.99815695 21.0496247,9.67079816 21.892,9.064 L36.683,16.46 C36.0540718,17.1929374 35.5838522,18.0482537 35.302,18.972 L11.915,18.037 C11.452,15.185 8.98,13 6,13 C2.691,13 0,15.691 0,19 C0,22.309 2.691,25 6,25 C8.954,25 11.411,22.852 11.904,20.037 L35.002,20.961 L35,21 C35,21.99 35.209,22.931 35.581,23.785 L29.865,27.868 C28.948,26.738 27.565,26 26,26 C23.243,26 21,28.243 21,31 C21,33.757 23.243,36 26,36 C28.757,36 31,33.757 31,31 C31,30.533 30.915,30.09 30.795,29.661 L36.636,25.489 C37.9631834,27.0800085 39.9281111,27.9998321 42,28 C43.274485,27.9996662 44.5242312,27.6481319 45.612,26.984 L52.244,32.669 C52.0872305,33.0954706 52.0047028,33.5456524 52,34 C52,36.206 53.794,38 56,38 C58.206,38 60,36.206 60,34 C60,31.794 58.206,30 56,30 C54.992,30 54.08,30.387 53.376,31.005 L47.179,25.693 C48.4487171,24.3023691 49.1012408,22.4568693 48.9878236,20.5771958 C48.8744064,18.6975223 48.0047144,16.9438712 46.577,15.716 L52.288,9.189 C53.0939574,9.71718544 54.0363889,9.99901137 55,10 Z M6,23 C3.794,23 2,21.206 2,19 C2,16.794 3.794,15 6,15 C8.206,15 10,16.794 10,19 C10,21.206 8.206,23 6,23 Z M26,34 C24.346,34 23,32.654 23,31 C23,29.346 24.346,28 26,28 C27.654,28 29,29.346 29,31 C29,32.654 27.654,34 26,34 Z M19,8 C17.346,8 16,6.654 16,5 C16,3.346 17.346,2 19,2 C20.654,2 22,3.346 22,5 C22,6.654 20.654,8 19,8 Z M56,32 C57.103,32 58,32.897 58,34 C58,35.103 57.103,36 56,36 C54.897,36 54,35.103 54,34 C54,32.897 54.897,32 56,32 Z M47,21 C47,23.757 44.757,26 42,26 C39.243,26 37,23.757 37,21 C37,18.243 39.243,16 42,16 C44.757,16 47,18.243 47,21 Z M55,2 C56.654,2 58,3.346 58,5 C58,6.654 56.654,8 55,8 C53.346,8 52,6.654 52,5 C52,3.346 53.346,2 55,2 Z" id="Shape"></path>
                            </g>
                        </g>
                    </g>
                </g>
            </g>
        </g>
    </g>
</svg>