<svg width="100" height="91" viewBox="0 0 100 91" version="1.1" xmlns="http://www.w3.org/2000/svg" xmlns:xlink="http://www.w3.org/1999/xlink">
<title>recording_stopped</title>
<desc>Created using Figma</desc>
<g id="Canvas" transform="translate(140 167)">
<g id="recording_stopped">
<g id="Vector">
<use xlink:href="#path0_fill" transform="translate(-140 -165.941)"/>
</g>
<g id="Vector">
<use xlink:href="#path1_fill" transform="translate(-95.5396 -167)"/>
</g>
</g>
</g>
<defs>
<path id="path0_fill" d="M 99.94 59.1734C 99.94 59.1734 88.642 30.0834 88.344 29.4194C 89.024 27.7384 87.769 21.8794 87.34 21.3964L 87.127 17.7354C 87.11 17.4394 86.519 17.2334 85.807 17.2744C 85.177 17.3114 84.765 17.2744 84.765 17.2744C 84.727 16.9804 83.867 16.6894 83.16 16.7794C 82.453 16.8694 81.91 17.1814 81.948 17.4754L 82.022 18.8664L 78.749 10.8934C 78.504 10.2234 77.763 9.87942 77.093 10.1244C 76.423 10.3694 76.079 11.1104 76.324 11.7804L 79.039 19.9634L 74.349 13.7004C 73.943 13.1144 73.139 12.9674 72.553 13.3724C 71.967 13.7774 71.82 14.5824 72.225 15.1684L 77.564 23.3584C 77.457 23.6744 77.436 24.2984 77.222 24.5084C 76.611 25.1074 75.961 25.8124 76.254 26.9394C 76.547 28.0664 77.456 28.8054 78.284 28.5904L 78.579 28.5134C 80.118 30.1834 81.362 31.9594 83.115 32.3794L 86.521 51.6434L 71.463 46.6874C 69.274 43.5074 66.017 41.0734 62.03 40.0264C 58.644 39.1384 55.222 39.3764 52.143 40.5054C 51.939 40.5584 22.046 57.3084 22.046 57.3084L 10.092 33.2014C 10.375 32.4394 10.566 31.4504 10.634 30.1774C 10.713 30.1674 10.791 30.1574 10.868 30.1504C 13.003 29.9614 14.537 29.4294 14.537 26.9334L 14.537 7.39442C 14.537 4.61542 12.572 1.43442 10.148 0.289422C 9.08196 -0.212578 8.18096 0.075422 7.35996 0.148422C 5.22496 0.337422 3.69196 0.869422 3.69196 3.36542L 3.69196 13.6404C 1.59996 14.4464 1.64396 16.0634 0.334962 21.4054C -1.05904 27.0964 2.17696 32.7314 4.90496 34.3394C 5.01396 35.4694 13.592 67.5324 14.09 68.3984C 15.667 71.1424 18.628 72.4004 20.704 71.2074L 38.76 62.6094C 36.764 70.3204 33.995 81.0374 31.75 89.8174L 66.359 89.8174L 73.835 61.2984L 93.023 65.8504C 94.077 66.1994 95.211 65.9894 96.224 65.3694C 98.854 64.2974 100.322 60.9194 99.94 59.1734Z"/>
<path id="path1_fill" d="M 11.1386 35.2103C 18.3316 38.2843 26.3856 36.3913 31.5196 31.0863C 30.7116 30.5153 30.0796 29.6143 29.7946 28.5183C 29.3896 26.9613 29.7706 25.4483 30.6846 24.4873L 26.0466 17.3723C 25.5516 16.6403 25.3656 15.7603 25.5246 14.8893C 25.6856 14.0073 26.1806 13.2403 26.9176 12.7303C 27.4816 12.3403 28.1416 12.1343 28.8256 12.1343C 29.1316 12.1343 29.4326 12.1763 29.7206 12.2553C 29.7386 11.8193 29.8426 11.3863 30.0326 10.9773C 30.4106 10.1643 31.0826 9.54732 31.9246 9.23932C 32.2956 9.10332 32.6836 9.03532 33.0766 9.03532C 33.2786 9.03532 33.4756 9.05832 33.6696 9.09432C 33.6836 9.09732 33.6976 9.10132 33.7116 9.10432C 33.8986 9.14032 34.0796 9.19432 34.2566 9.26132C 32.3446 5.90532 29.3796 3.11332 25.5546 1.47932C 16.2416 -2.49968 5.4606 1.82432 1.4796 11.1383C -2.5004 20.4513 1.8256 31.2303 11.1386 35.2103Z"/>
</defs>
</svg>
