<?xml version="1.0" encoding="UTF-8"?>
<svg width="62px" height="62px" viewBox="0 0 62 62" version="1.1" xmlns="http://www.w3.org/2000/svg" xmlns:xlink="http://www.w3.org/1999/xlink">
    <!-- Generator: Sketch 48.2 (47327) - http://www.bohemiancoding.com/sketch -->
    <title>social_media</title>
    <desc>Created with Sketch.</desc>
    <defs></defs>
    <g id="Assets" stroke="none" stroke-width="1" fill="none" fill-rule="evenodd">
        <g id="social_media" transform="translate(1.000000, 1.000000)" stroke="#777777" stroke-width="2">
            <path d="M31.999,38.231 C30.14,38.083 28.142,38 26,38 C14.86,38 7.506,40.331 3.547,42.087 C1.379,43.048 0,45.196 0,47.567 L0,58 L36.001,58" id="Shape" stroke-linecap="square"></path>
            <path d="M12,14 C12,6.268 18.268,0 26,0 C33.732,0 40,6.268 40,14 C40,21.732 33.732,30 26,30 C18.268,30 12,21.732 12,14 Z" id="Shape" stroke-linecap="square"></path>
            <path d="M45.253,50.323 L52.466,54.134" id="Shape"></path>
            <path d="M45.253,45.677 L52.466,41.866" id="Shape"></path>
            <circle id="Oval" stroke-linecap="square" cx="42" cy="48" r="4"></circle>
            <circle id="Oval" stroke-linecap="square" cx="56" cy="40" r="4"></circle>
            <circle id="Oval" stroke-linecap="square" cx="56" cy="56" r="4"></circle>
        </g>
    </g>
</svg>