<?xml version="1.0" encoding="UTF-8"?>
<svg width="146px" height="136px" viewBox="0 0 146 136" version="1.1" xmlns="http://www.w3.org/2000/svg" xmlns:xlink="http://www.w3.org/1999/xlink">
    <!-- Generator: Sketch 48.2 (47327) - http://www.bohemiancoding.com/sketch -->
    <title>success</title>
    <desc>Created with Sketch.</desc>
    <defs></defs>
    <g id="Assets" stroke="none" stroke-width="1" fill="none" fill-rule="evenodd">
        <g id="check-circle-07" fill="#00CAAF" fill-rule="nonzero">
            <path d="M127.212889,46.6001481 C129.635704,53.2842963 130.962963,60.4897778 130.962963,68 C130.962963,102.717778 102.717778,130.962963 68,130.962963 C33.2822222,130.962963 5.03703704,102.717778 5.03703704,68 C5.03703704,33.2822222 33.2822222,5.03703704 68,5.03703704 C82.3127407,5.03703704 95.5198519,9.84740741 106.107704,17.9242963 L109.950963,14.5419259 C98.3859259,5.44503704 83.8213333,0 68,0 C30.5042963,0 0,30.5042963 0,68 C0,105.495704 30.5042963,136 68,136 C105.495704,136 136,105.495704 136,68 C136,59.029037 134.237037,50.4635556 131.066222,42.6133333 L127.212889,46.6001481 Z" id="Shape"></path>
            <polygon id="Shape" points="135.909091 5 72.8409091 60.3333333 45.0909091 40.2121212 35 50.2727273 72.8409091 88 146 12.5454545"></polygon>
        </g>
    </g>
</svg>