<svg width="87" height="87" viewBox="0 0 87 87" version="1.1" xmlns="http://www.w3.org/2000/svg" xmlns:xlink="http://www.w3.org/1999/xlink">
<title>Group</title>
<desc>Created using Figma</desc>
<g id="Canvas" transform="translate(-2003 1192)">
<g id="Group">
<g id="Ellipse">
<use xlink:href="#path0_fill" transform="translate(2015 -1180)" fill="#FFFFFF"/>
</g>
<g id="Vector">
<use xlink:href="#path1_fill" transform="translate(2003 -1192)" fill="#20B36E"/>
</g>
</g>
</g>
<defs>
<path id="path0_fill" d="M 62 31C 62 48.1208 48.1208 62 31 62C 13.8792 62 0 48.1208 0 31C 0 13.8792 13.8792 0 31 0C 48.1208 0 62 13.8792 62 31Z"/>
<path id="path1_fill" d="M 43.4 -9.53674e-08C 19.4 -9.53674e-08 -9.53674e-08 19.4 -9.53674e-08 43.4C -9.53674e-08 67.4 19.4 86.8 43.4 86.8C 67.4 86.8 86.8 67.4 86.8 43.4C 86.8 19.4 67.4 -9.53674e-08 43.4 -9.53674e-08ZM 64.4 34.4L 38.7 60C 37.9 60.8 36.9 61.2 35.9 61.2C 34.9 61.2 33.8 60.8 33.1 60L 20.4 47.4C 18.8 45.8 18.8 43.3 20.4 41.7C 22 40.1 24.5 40.1 26.1 41.7L 35.9 51.5L 58.7 28.7C 60.3 27.1 62.8 27.1 64.4 28.7C 65.9 30.3 65.9 32.9 64.4 34.4Z"/>
</defs>
</svg>
